<svg xmlns="http://www.w3.org/2000/svg" viewBox="0 0 512 512">
  <defs>
    <!-- Deep AI Tech Gradient -->
    <linearGradient id="aiGradient" x1="0%" y1="0%" x2="100%" y2="100%">
      <stop offset="0%" style="stop-color:#4F46E5;stop-opacity:1" /> <!-- Indigo -->
      <stop offset="100%" style="stop-color:#06B6D4;stop-opacity:1" /> <!-- Cyan -->
    </linearGradient>
    
    <!-- Central Node Glow -->
    <radialGradient id="nodeGlow" cx="50%" cy="50%" r="50%" fx="50%" fy="50%">
      <stop offset="0%" style="stop-color:#FFFFFF;stop-opacity:1" />
      <stop offset="40%" style="stop-color:#6366F1;stop-opacity:0.8" />
      <stop offset="100%" style="stop-color:#4F46E5;stop-opacity:0" />
    </radialGradient>
  </defs>

  <!-- Main Calendar Shape (Squircle) -->
  <rect x="64" y="64" width="384" height="384" rx="90" fill="url(#aiGradient)" />
  
  <!-- Subtle Header Area (Glass effect) -->
  <path d="M 64 160 L 448 160 L 448 154 Q 448 90 384 64 L 128 64 Q 64 90 64 154 Z" fill="#ffffff" fill-opacity="0.1" />

  <!-- The "Brain Grid" - A mix of calendar structure and neural network -->
  <g transform="translate(136, 180)">
    <!-- Connection Lines (Circuitry) -->
    <path d="M 120 120 L 40 40" stroke="#ffffff" stroke-width="6" stroke-opacity="0.4" stroke-linecap="round" />
    <path d="M 120 120 L 200 40" stroke="#ffffff" stroke-width="6" stroke-opacity="0.4" stroke-linecap="round" />
    <path d="M 120 120 L 40 200" stroke="#ffffff" stroke-width="6" stroke-opacity="0.4" stroke-linecap="round" />
    <path d="M 120 120 L 200 200" stroke="#ffffff" stroke-width="6" stroke-opacity="0.4" stroke-linecap="round" />
    
    <!-- Horizontal & Vertical connections -->
    <path d="M 40 120 L 200 120" stroke="#ffffff" stroke-width="4" stroke-opacity="0.3" stroke-linecap="round" />
    <path d="M 120 40 L 120 200" stroke="#ffffff" stroke-width="4" stroke-opacity="0.3" stroke-linecap="round" />

    <!-- Grid Nodes (3x3 Layout) -->
    <!-- Top Row -->
    <circle cx="40" cy="40" r="12" fill="#ffffff" fill-opacity="0.6" />
    <circle cx="120" cy="40" r="12" fill="#ffffff" fill-opacity="0.6" />
    <circle cx="200" cy="40" r="12" fill="#ffffff" fill-opacity="0.6" />
    
    <!-- Middle Row -->
    <circle cx="40" cy="120" r="12" fill="#ffffff" fill-opacity="0.6" />
    <!-- Center Node (The AI Brain) -->
    <circle cx="120" cy="120" r="24" fill="url(#nodeGlow)" />
    <circle cx="120" cy="120" r="35" stroke="#ffffff" stroke-width="2" fill="none" stroke-opacity="0.5" stroke-dasharray="10 5" />
    <circle cx="200" cy="120" r="12" fill="#ffffff" fill-opacity="0.6" />
    
    <!-- Bottom Row -->
    <circle cx="40" cy="200" r="12" fill="#ffffff" fill-opacity="0.6" />
    <circle cx="120" cy="200" r="12" fill="#ffffff" fill-opacity="0.6" />
    <circle cx="200" cy="200" r="12" fill="#ffffff" fill-opacity="0.6" />
  </g>

  <!-- Metallic Calendar Rings -->
  <defs>
    <linearGradient id="ringGrad" x1="0%" y1="0%" x2="100%" y2="0%">
      <stop offset="0%" style="stop-color:#94a3b8" />
      <stop offset="50%" style="stop-color:#f1f5f9" />
      <stop offset="100%" style="stop-color:#94a3b8" />
    </linearGradient>
  </defs>
  
  <path d="M 140 40 L 140 100" stroke="url(#ringGrad)" stroke-width="24" stroke-linecap="round" />
  <path d="M 372 40 L 372 100" stroke="url(#ringGrad)" stroke-width="24" stroke-linecap="round" />

</svg>
